<svg xmlns="http://www.w3.org/2000/svg" viewBox="0 0 400 260" role="img" aria-label="Ink Dash illustration"><defs><linearGradient id="night" x2="0" y2="1"><stop stop-color="#111329"/><stop offset="1" stop-color="#25244c"/></linearGradient></defs><rect width="400" height="260" fill="url(#night)"/><path d="M0 201h400M0 164h400M0 127h400M67 0v260M134 0v260M201 0v260M268 0v260M335 0v260" stroke="#43466b" stroke-opacity=".35"/><path d="m79 192 75-29 31 21 76-71" fill="none" stroke="#fa4e90" stroke-opacity=".55" stroke-width="13" stroke-linecap="round"/><path d="m163 177 32-12 17 18-10 21-36-4Z" fill="#faf0da"/><circle cx="191" cy="145" r="14" fill="#f1778b"/><path d="m202 174 42-10m-67 34-18 22m43-19 22 19" stroke="#faf0da" stroke-width="8" stroke-linecap="round"/><circle cx="280" cy="149" r="12" fill="#a3e7d5"/><path d="m269 158-12 17 20 16 18-17-11-16Z" fill="#355c6d"/><circle cx="310" cy="114" r="11" fill="#f6c665"/><path d="m299 124-12 16 18 16 18-19Z" fill="#745280"/><rect x="15" y="15" width="370" height="230" rx="12" fill="none" stroke="#f279aa" stroke-width="2"/><text x="29" y="67" font-family="Arial,sans-serif" font-size="47" font-weight="900" letter-spacing="2" fill="#fff1fa" stroke="#d73778" stroke-width="3" paint-order="stroke">INK DASH</text><text x="29" y="230" font-family="Arial,sans-serif" font-size="12" font-weight="700" letter-spacing="3" fill="#c0fff0">PLAY IN BROWSER</text></svg>
