<svg xmlns="http://www.w3.org/2000/svg" viewBox="0 0 400 260" role="img" aria-label="LITTLE LAKE illustration"><rect width="400" height="260" fill="#193345"/><path d="M0 175Q85 155 200 174T400 170V260H0Z" fill="#367e96"/><path d="M0 207Q95 187 200 207T400 203M0 235Q95 215 200 235T400 231" fill="none" stroke="#9fe4df" stroke-width="4"/><path d="M135 191 245 63m0 0q45 10 30 116" fill="none" stroke="#ffe0a2" stroke-width="5"/><path d="M268 179q18-18 35 0-17 18-35 0Z" fill="#ffad7b"/><circle cx="295" cy="177" r="2" fill="#1b3240"/><circle cx="325" cy="61" r="20" fill="#ffdc9b"/><rect x="12" y="12" width="376" height="236" rx="12" fill="none" stroke="#b9f0da" stroke-width="2"/><text x="28" y="44" font-family="Arial,sans-serif" font-size="26" font-weight="700" fill="#b9f0da">LITTLE LAKE</text></svg>
