<svg xmlns="http://www.w3.org/2000/svg" viewBox="0 0 400 260" role="img" aria-label="Pantry Dash illustration"><rect width="400" height="260" fill="#2a1d19"/><rect x="31" y="64" width="338" height="156" rx="12" fill="#6c3c28"/><path d="M50 83h300v118H50z" fill="#e7dbb7"/><path d="M50 122h300M50 162h300M92 83v118m43-118v118m43-118v118m43-118v118m43-118v118m43-118v118" stroke="#a8c5b2" stroke-width="2"/><path d="M93 123h42v39h-42m85-79h43v39h-43m86 40h43v39h-43" fill="#6c3c28"/><circle cx="155" cy="183" r="15" fill="#9ba0a9"/><circle cx="147" cy="179" r="2" fill="#282b33"/><path d="m166 181 15 4-15 4" fill="#e3a5a5"/><path d="m287 105 19-10-4 20Z" fill="#f9bd4e"/><path d="m243 185 18-9-4 19Z" fill="#f9bd4e"/><rect x="15" y="15" width="370" height="230" rx="12" fill="none" stroke="#f1b856" stroke-width="2"/><text x="28" y="51" font-family="Georgia,serif" font-size="32" font-weight="700" fill="#ffe5a6">PANTRY DASH</text><text x="29" y="238" font-family="Arial,sans-serif" font-size="12" font-weight="700" letter-spacing="3" fill="#f7d69b">PLAY IN BROWSER</text></svg>
