<svg xmlns="http://www.w3.org/2000/svg" viewBox="0 0 400 260" role="img" aria-label="Snowboard Supreme illustration"><defs><linearGradient id="sky" x2="0" y2="1"><stop stop-color="#172c60"/><stop offset="1" stop-color="#6ac8df"/></linearGradient></defs><rect width="400" height="260" fill="url(#sky)"/><path d="M0 176 110 68l58 70 46-62 73 92 57-53 56 70v75H0" fill="#b9d8e7"/><path d="M0 213 110 99l58 70 47-57 70 82 59-49 56 60v55H0" fill="#e8f5fa"/><path d="m181 183 22-40 20 6-14 42" fill="#e6684a"/><circle cx="208" cy="138" r="10" fill="#273456"/><path d="m174 200 94 17" stroke="#243459" stroke-width="9" stroke-linecap="round"/><path d="m100 222 34-14m-20 29 31-15" stroke="#fff" stroke-width="4" opacity=".8"/><text x="22" y="44" font-family="Arial,sans-serif" font-size="28" font-weight="700" fill="#fff">SNOWBOARD SUPREME</text></svg>
