<svg xmlns="http://www.w3.org/2000/svg" viewBox="0 0 400 260" role="img" aria-label="Stardust Isles illustration"><rect width="400" height="260" fill="#b2cce0"/><circle cx="315" cy="63" r="35" fill="#fff3bd"/><path d="M0 159 64 116 129 145 199 91 286 143 362 97 400 124v136H0Z" fill="#7a9f82"/><path d="M0 199 99 166 184 208 293 157 400 184v76H0Z" fill="#5f945b"/><path d="M0 231q90-24 182-4t218-5v38H0Z" fill="#78b098"/><rect x="111" y="152" width="62" height="50" fill="#f4e4bd"/><path d="m103 155 39-31 41 31Z" fill="#a64b46"/><rect x="258" y="159" width="52" height="45" fill="#f4e4bd"/><path d="m249 161 35-27 35 27Z" fill="#5473b4"/><path d="M190 209v-40m-16 9h32" stroke="#526547" stroke-width="10" stroke-linecap="round"/><path d="m66 80 3 8 8 3-8 3-3 8-3-8-8-3 8-3m157-34 3 8 8 3-8 3-3 8-3-8-8-3 8-3" fill="#fff8d7"/><rect x="14" y="14" width="372" height="232" rx="12" fill="none" stroke="#fceabb" stroke-width="2"/><text x="28" y="51" font-family="Georgia,serif" font-size="32" font-weight="700" fill="#243e45">STARDUST ISLES</text><text x="29" y="239" font-family="Arial,sans-serif" font-size="12" font-weight="700" letter-spacing="3" fill="#f9f2cb">PLAY IN BROWSER</text></svg>
